<svg width="427" height="95" viewBox="0 0 427 95" fill="none" xmlns="http://www.w3.org/2000/svg">
<g filter="url(#filter0_di_239_166)">
<path d="M24.9 60.58V17.74H36.36V60.58H24.9ZM61.08 60.58V17.74H72.54V60.58H61.08ZM35.4 43.48V34.72H62.04V43.48H35.4ZM92.0953 60.58V17.74H134.275V26.44H103.555V34.84H131.935V43.18H103.555V51.88H134.275V60.58H92.0953ZM152.67 60.58V17.74H183.57C186.69 17.74 189.37 18.2 191.61 19.12C193.85 20 195.59 21.32 196.83 23.08C198.07 24.8 198.69 26.92 198.69 29.44C198.69 31.44 198.25 33.28 197.37 34.96C196.49 36.6 195.11 37.96 193.23 39.04C191.39 40.12 188.93 40.8 185.85 41.08L186.57 40.48C188.77 40.52 190.57 40.84 191.97 41.44C193.41 42 194.57 42.88 195.45 44.08C196.33 45.24 197.05 46.76 197.61 48.64L201.15 60.58H189.21L186.21 50.32C185.73 48.64 184.97 47.36 183.93 46.48C182.89 45.6 181.37 45.16 179.37 45.16H164.13V60.58H152.67ZM164.13 36.46H181.59C182.51 36.46 183.35 36.3 184.11 35.98C184.91 35.62 185.55 35.08 186.03 34.36C186.51 33.6 186.75 32.62 186.75 31.42C186.75 29.62 186.21 28.34 185.13 27.58C184.09 26.82 182.91 26.44 181.59 26.44H164.13V36.46ZM218.517 60.58V17.74H234.837L249.177 53.26H244.677L259.197 17.74H274.737V60.58H263.637V24.7L265.977 25.06L251.037 60.58H241.497L226.557 25.06L228.837 24.7V60.58H218.517ZM294.326 60.58V17.74H336.506V26.44H305.786V34.84H334.166V43.18H305.786V51.88H336.506V60.58H294.326ZM377.76 61.42C373.84 61.42 370.38 61.1 367.38 60.46C364.38 59.82 361.82 58.9 359.7 57.7C357.62 56.5 356.02 55.06 354.9 53.38C353.82 51.66 353.22 49.76 353.1 47.68H364.92C365.16 48.52 365.62 49.3 366.3 50.02C366.98 50.7 367.84 51.3 368.88 51.82C369.96 52.3 371.24 52.68 372.72 52.96C374.2 53.24 375.88 53.38 377.76 53.38C380.2 53.38 382.28 53.18 384 52.78C385.76 52.34 387.12 51.72 388.08 50.92C389.04 50.12 389.52 49.18 389.52 48.1C389.52 47.42 389.36 46.84 389.04 46.36C388.72 45.88 388.22 45.48 387.54 45.16C386.9 44.84 386.06 44.62 385.02 44.5L370.14 42.64C367.54 42.32 365.22 41.84 363.18 41.2C361.14 40.56 359.44 39.74 358.08 38.74C356.72 37.74 355.68 36.52 354.96 35.08C354.24 33.64 353.88 31.98 353.88 30.1C353.88 28.06 354.4 26.22 355.44 24.58C356.48 22.94 358 21.56 360 20.44C362 19.28 364.4 18.4 367.2 17.8C370.04 17.2 373.26 16.9 376.86 16.9C380.46 16.9 383.62 17.2 386.34 17.8C389.1 18.36 391.42 19.2 393.3 20.32C395.22 21.4 396.68 22.72 397.68 24.28C398.72 25.8 399.3 27.5 399.42 29.38H387.54C387.38 28.46 386.86 27.68 385.98 27.04C385.14 26.36 383.94 25.84 382.38 25.48C380.82 25.12 378.88 24.94 376.56 24.94C374.28 24.94 372.32 25.12 370.68 25.48C369.04 25.84 367.8 26.36 366.96 27.04C366.16 27.72 365.76 28.54 365.76 29.5C365.76 30.18 365.96 30.8 366.36 31.36C366.8 31.88 367.4 32.32 368.16 32.68C368.92 33 369.82 33.24 370.86 33.4L386.28 35.26C389.56 35.66 392.32 36.38 394.56 37.42C396.8 38.46 398.5 39.82 399.66 41.5C400.86 43.18 401.46 45.22 401.46 47.62C401.46 49.9 400.94 51.9 399.9 53.62C398.9 55.3 397.38 56.74 395.34 57.94C393.34 59.1 390.86 59.98 387.9 60.58C384.98 61.14 381.6 61.42 377.76 61.42Z" fill="url(#paint0_linear_239_166)"/>
</g>
<defs>
<filter id="filter0_di_239_166" x="-5.72205e-06" y="2.47955e-05" width="426.36" height="94.32" filterUnits="userSpaceOnUse" color-interpolation-filters="sRGB">
<feFlood flood-opacity="0" result="BackgroundImageFix"/>
<feColorMatrix in="SourceAlpha" type="matrix" values="0 0 0 0 0 0 0 0 0 0 0 0 0 0 0 0 0 0 127 0" result="hardAlpha"/>
<feOffset dy="8"/>
<feGaussianBlur stdDeviation="12.45"/>
<feComposite in2="hardAlpha" operator="out"/>
<feColorMatrix type="matrix" values="0 0 0 0 0.0941176 0 0 0 0 0.317647 0 0 0 0 0.521569 0 0 0 1 0"/>
<feBlend mode="normal" in2="BackgroundImageFix" result="effect1_dropShadow_239_166"/>
<feBlend mode="normal" in="SourceGraphic" in2="effect1_dropShadow_239_166" result="shape"/>
<feColorMatrix in="SourceAlpha" type="matrix" values="0 0 0 0 0 0 0 0 0 0 0 0 0 0 0 0 0 0 127 0" result="hardAlpha"/>
<feOffset dy="4"/>
<feGaussianBlur stdDeviation="3.55"/>
<feComposite in2="hardAlpha" operator="arithmetic" k2="-1" k3="1"/>
<feColorMatrix type="matrix" values="0 0 0 0 1 0 0 0 0 1 0 0 0 0 1 0 0 0 0.25 0"/>
<feBlend mode="normal" in2="shape" result="effect2_innerShadow_239_166"/>
</filter>
<linearGradient id="paint0_linear_239_166" x1="212.68" y1="75.58" x2="212.68" y2="2.58002" gradientUnits="userSpaceOnUse">
<stop offset="0.326923" stop-color="#3E9DF1"/>
<stop offset="1" stop-color="#245B8B"/>
</linearGradient>
</defs>
</svg>
