<svg width="191" height="63" viewBox="0 0 191 63" fill="none" xmlns="http://www.w3.org/2000/svg">
<g clip-path="url(#clip0_497_437)">
<path d="M9.70448 37.0177V21.6787L25.0435 37.0177L40.5374 21.6787V37.0177L25.0435 52.3567H9.70448L17.374 44.6872L9.70448 37.0177Z" fill="white"/>
<path d="M62.3725 21.6787L31.5396 52.3567H46.8785L51.4841 47.8635V52.3567H62.3725V21.6787Z" fill="white"/>
<path d="M67.2104 30.8381V52.3567H78.0048V42.2999L84.6247 48.948V52.3567H95.4093L95.5643 21.6787L84.6247 25.0794L84.6762 33.7423L78.0563 27.1015L67.2104 30.8381Z" fill="white"/>
<path d="M100.436 51.3258H116.55M105.629 51.1871V31.8197M111.982 51.1871V17.2554M123.328 35.9968L95.104 18.3669M123.328 29.0419L94.2953 10.5225" stroke="white" stroke-width="1.9409"/>
<path d="M176.945 25.322L177.713 48.6937H179.776L180.503 52.4137H158.188L148.317 42.4666L167.726 21.7637L176.945 25.322ZM164.868 31.1447C164.868 39.499 157.536 39.499 157.536 39.499C157.536 39.499 164.868 39.499 164.868 47.1571C164.868 39.499 171.769 39.499 171.769 39.499C171.769 39.499 164.868 39.499 164.868 31.1447Z" fill="white"/>
<path d="M142.367 21.6016H129.145L138.841 31.8906L119.042 52.3325H131.518L135.925 48.6529L138.841 52.3325H152.199L142.367 42.3841L152.199 31.8906L142.367 21.6016Z" fill="white"/>
<path d="M122.762 21.6016V42.3841L132.79 31.9531L122.762 21.6016Z" fill="white"/>
</g>
<defs>
<clipPath id="clip0_497_437">
<rect width="170.799" height="42.8615" fill="white" transform="translate(9.70448 9.7041)"/>
</clipPath>
</defs>
</svg>
