<svg width="60" height="60" viewBox="0 0 60 60" fill="none" xmlns="http://www.w3.org/2000/svg">
<path d="M28.1995 55H17.5244C14.8722 55 12.3287 53.9462 10.4533 52.071C8.57796 50.1955 7.52441 47.6522 7.52441 45V37.225C7.52441 28.6783 10.9195 20.4818 16.9629 14.4385C23.0062 8.39513 31.2027 5 39.7495 5H42.5245C45.1765 5 47.7202 6.05355 49.5955 7.92893C51.4707 9.8043 52.5245 12.3478 52.5245 15V28.5998" stroke="#3E9DF1" stroke-width="3.75" stroke-linecap="round" stroke-linejoin="round"/>
<path d="M7.5 37.65C7.5 24.75 21.2501 35.1497 29.325 27.0497C37.4 18.9499 27.075 5 39.95 5" stroke="#3E9DF1" stroke-width="3.75" stroke-linecap="round" stroke-linejoin="round"/>
<path d="M45.4736 57.5V37.5" stroke="#3E9DF1" stroke-width="3.75" stroke-linecap="round" stroke-linejoin="round"/>
<path d="M37.9736 45L45.4736 37.5" stroke="#3E9DF1" stroke-width="3.75" stroke-linecap="round" stroke-linejoin="round"/>
<path d="M52.9736 45L45.4736 37.5" stroke="#3E9DF1" stroke-width="3.75" stroke-linecap="round" stroke-linejoin="round"/>
</svg>
